<svg width="48" height="34" viewBox="0 0 48 34" fill="none" xmlns="http://www.w3.org/2000/svg">
<rect x="1.61626" y="0.747121" width="45.4428" height="31.6722" rx="4.81969" fill="white" stroke="#D1D9E0" stroke-width="1.37705"/>
<path fill-rule="evenodd" clip-rule="evenodd" d="M13.9394 11.5476C13.5464 12.0322 12.9176 12.4144 12.2889 12.3598C12.2103 11.7046 12.5181 11.0084 12.8783 10.5784C13.2713 10.0802 13.9591 9.7253 14.5158 9.698C14.5813 10.3805 14.3258 11.0494 13.9394 11.5476ZM14.5091 12.4894C13.9551 12.4562 13.4497 12.663 13.0414 12.8301C12.7787 12.9376 12.5562 13.0286 12.387 13.0286C12.197 13.0286 11.9653 12.9327 11.7052 12.825C11.3644 12.684 10.9747 12.5226 10.5661 12.5304C9.6295 12.544 8.75838 13.0969 8.28024 13.9773C7.29778 15.7382 8.0248 18.3454 8.97452 19.7786C9.43955 20.4884 9.99628 21.2665 10.7299 21.2392C11.0526 21.2265 11.2847 21.1239 11.525 21.0176C11.8016 20.8953 12.0889 20.7683 12.5376 20.7683C12.9707 20.7683 13.2455 20.892 13.5092 21.0108C13.76 21.1237 14.0009 21.2322 14.3584 21.2256C15.1182 21.2119 15.5963 20.5157 16.0614 19.8059C16.5632 19.0441 16.7838 18.3006 16.8172 18.1878L16.8211 18.1747C16.8203 18.1739 16.8141 18.1709 16.8032 18.1657C16.6354 18.0857 15.3532 17.474 15.3409 15.8337C15.3286 14.457 16.3579 13.7594 16.52 13.6496L16.52 13.6496L16.5201 13.6495L16.5201 13.6495L16.5202 13.6495C16.5299 13.6428 16.5365 13.6384 16.5395 13.6361C15.8845 12.6259 14.8628 12.5167 14.5091 12.4894ZM19.7689 21.1505V10.5102H23.6005C25.5786 10.5102 26.9606 11.9298 26.9606 14.0046C26.9606 16.0794 25.5524 17.5127 23.5482 17.5127H21.354V21.1505H19.7689ZM21.3538 11.9025H23.1811C24.5566 11.9025 25.3426 12.6669 25.3426 14.0115C25.3426 15.356 24.5566 16.1272 23.1746 16.1272H21.3538V11.9025ZM32.1938 19.8742C31.7746 20.7069 30.8511 21.2324 29.8555 21.2324C28.3818 21.2324 27.3535 20.3178 27.3535 18.9392C27.3535 17.5741 28.3491 16.7893 30.1895 16.6732L32.1676 16.5504V15.9634C32.1676 15.0966 31.6239 14.6257 30.6546 14.6257C29.8555 14.6257 29.2726 15.0557 29.1547 15.7109H27.7268C27.7727 14.3322 29.0171 13.3289 30.7004 13.3289C32.5147 13.3289 33.6937 14.3186 33.6937 15.8542V21.1505H32.2265V19.8742H32.1938ZM30.2806 19.9698C29.4357 19.9698 28.8986 19.5466 28.8986 18.8982C28.8986 18.2294 29.4161 17.8403 30.4051 17.7789L32.167 17.6629V18.2635C32.167 19.2599 31.3548 19.9698 30.2806 19.9698ZM38.5602 21.5668C37.9248 23.4301 37.1978 24.0443 35.6521 24.0443C35.5342 24.0443 35.1412 24.0307 35.0495 24.0034V22.7271C35.1477 22.7407 35.3901 22.7544 35.5145 22.7544C36.2153 22.7544 36.6083 22.4473 36.8507 21.6487L36.9948 21.1778L34.3094 13.4313H35.9665L37.8331 19.7172H37.8659L39.7326 13.4313H41.3438L38.5602 21.5668Z" fill="black"/>
</svg>
