<svg width="48" height="34" viewBox="0 0 48 34" fill="none" xmlns="http://www.w3.org/2000/svg">
<rect x="0.961964" y="0.747121" width="45.4428" height="31.6722" rx="4.81969" fill="white" stroke="#D1D9E0" stroke-width="1.37705"/>
<path fill-rule="evenodd" clip-rule="evenodd" d="M22.3855 21.4413V17.4001H24.4712C25.3259 17.4001 26.0472 17.1138 26.6353 16.549L26.7765 16.4058C27.8507 15.2364 27.7801 13.4147 26.6353 12.3328C26.0629 11.76 25.2788 11.4498 24.4712 11.4657H21.123V21.4413H22.3855ZM22.3858 16.175V12.6907H24.5032C24.9581 12.6907 25.3894 12.8657 25.711 13.1839C26.3932 13.8521 26.4089 14.9658 25.7502 15.6579C25.4286 16 24.9738 16.1909 24.5032 16.175H22.3858ZM32.6651 15.1488C32.1241 14.6477 31.387 14.3931 30.4539 14.3931C29.2542 14.3931 28.3525 14.8386 27.7566 15.7216L28.87 16.4296C29.2778 15.825 29.8345 15.5227 30.5402 15.5227C30.9871 15.5227 31.4184 15.6898 31.7555 15.9921C32.0849 16.2785 32.2731 16.6921 32.2731 17.1297V17.424C31.7869 17.1535 31.1753 17.0103 30.4226 17.0103C29.5444 17.0103 28.8387 17.2172 28.3133 17.6388C27.788 18.0604 27.5214 18.6172 27.5214 19.3252C27.5057 19.9696 27.7801 20.5822 28.2663 20.9958C28.7603 21.4413 29.3875 21.664 30.1246 21.664C30.995 21.664 31.685 21.2742 32.2103 20.4946H32.2652V21.4413H33.4727V17.2331C33.4727 16.3501 33.2061 15.65 32.6651 15.1488ZM29.2388 20.1844C28.98 19.9935 28.8232 19.6833 28.8232 19.3491C28.8232 18.9753 28.9957 18.665 29.3329 18.4184C29.678 18.1718 30.1093 18.0445 30.619 18.0445C31.3248 18.0366 31.8738 18.1957 32.2659 18.5139C32.2659 19.0548 32.0542 19.5242 31.6385 19.9219C31.2621 20.3037 30.7524 20.5185 30.2191 20.5185C29.8662 20.5265 29.5211 20.4072 29.2388 20.1844ZM36.186 24.4403L40.4045 14.6158H39.0323L37.0798 19.5161H37.0563L35.0568 14.6158H33.6847L36.4526 21.0037L34.8843 24.4403H36.186Z" fill="#3C4043"/>
<path d="M18.0256 16.5252C18.0256 16.1354 17.9942 15.7456 17.9315 15.3638H12.6074V17.5673H15.6576C15.5321 18.2753 15.1244 18.9117 14.5285 19.3095V20.7414H16.3476C17.414 19.747 18.0256 18.2753 18.0256 16.5252Z" fill="#4285F4"/>
<path d="M12.6082 22.1255C14.1294 22.1255 15.4153 21.6163 16.3484 20.7413L14.5293 19.3094C14.0196 19.6594 13.3688 19.8583 12.6082 19.8583C11.1341 19.8583 9.88736 18.848 9.44042 17.4956H7.56641V18.9752C8.52302 20.9083 10.4754 22.1255 12.6082 22.1255Z" fill="#34A853"/>
<path d="M9.44107 17.4957C9.2058 16.7877 9.2058 16.016 9.44107 15.3001V13.8284H7.56676C6.759 15.4432 6.759 17.3525 7.56676 18.9673L9.44107 17.4957Z" fill="#FBBC04"/>
<path d="M12.6082 12.9375C13.4158 12.9216 14.1921 13.2318 14.7723 13.7966L16.3876 12.1579C15.3604 11.1873 14.0118 10.6544 12.6082 10.6703C10.4754 10.6703 8.52302 11.8953 7.56641 13.8284L9.44042 15.3081C9.88736 13.9478 11.1341 12.9375 12.6082 12.9375Z" fill="#EA4335"/>
</svg>
