<svg width="48" height="34" viewBox="0 0 48 34" fill="none" xmlns="http://www.w3.org/2000/svg">
<rect x="1.27251" y="0.747121" width="45.4428" height="31.6722" rx="4.81969" fill="white" stroke="#D1D9E0" stroke-width="1.37705"/>
<path d="M27.1021 16.178C27.1021 21.2779 23.0153 25.4122 17.9739 25.4122C12.9325 25.4122 8.8457 21.2779 8.8457 16.178C8.8457 11.0781 12.9325 6.94385 17.9739 6.94385C23.0153 6.94385 27.1021 11.0781 27.1021 16.178Z" fill="#ED0006"/>
<path d="M38.9439 16.178C38.9439 21.2779 34.8571 25.4122 29.8157 25.4122C24.7743 25.4122 20.6875 21.2779 20.6875 16.178C20.6875 11.0781 24.7743 6.94385 29.8157 6.94385C34.8571 6.94385 38.9439 11.0781 38.9439 16.178Z" fill="#0099DF"/>
<path fill-rule="evenodd" clip-rule="evenodd" d="M23.8947 23.2063C25.8573 21.5126 27.1018 18.9924 27.1018 16.1781C27.1018 13.3638 25.8573 10.8436 23.8947 9.1499C21.932 10.8436 20.6875 13.3638 20.6875 16.1781C20.6875 18.9924 21.932 21.5126 23.8947 23.2063Z" fill="#6C6BBD"/>
</svg>
