<svg width="48" height="34" viewBox="0 0 48 34" fill="none" xmlns="http://www.w3.org/2000/svg">
<rect x="0.928761" y="0.747121" width="45.4428" height="31.6722" rx="4.81969" fill="white" stroke="#D1D9E0" stroke-width="1.37705"/>
<path fill-rule="evenodd" clip-rule="evenodd" d="M23.8959 23.2337C22.2654 24.608 20.1504 25.4376 17.8393 25.4376C12.6824 25.4376 8.50195 21.3069 8.50195 16.2114C8.50195 11.1158 12.6824 6.98511 17.8393 6.98511C20.1504 6.98511 22.2654 7.81474 23.8959 9.18903C25.5264 7.81474 27.6413 6.98511 29.9524 6.98511C35.1093 6.98511 39.2898 11.1158 39.2898 16.2114C39.2898 21.3069 35.1093 25.4376 29.9524 25.4376C27.6413 25.4376 25.5264 24.608 23.8959 23.2337Z" fill="#ED0006"/>
<path fill-rule="evenodd" clip-rule="evenodd" d="M23.8965 23.2334C25.904 21.5412 27.177 19.0232 27.177 16.2114C27.177 13.3996 25.904 10.8816 23.8965 9.18931C25.527 7.81485 27.6421 6.98511 29.9534 6.98511C35.1103 6.98511 39.2907 11.1158 39.2907 16.2114C39.2907 21.3069 35.1103 25.4376 29.9534 25.4376C27.6421 25.4376 25.527 24.6079 23.8965 23.2334Z" fill="#F9A000"/>
<path fill-rule="evenodd" clip-rule="evenodd" d="M23.8961 23.2336C25.9038 21.5414 27.1769 19.0232 27.1769 16.2113C27.1769 13.3994 25.9038 10.8812 23.8961 9.18896C21.8883 10.8812 20.6152 13.3994 20.6152 16.2113C20.6152 19.0232 21.8883 21.5414 23.8961 23.2336Z" fill="#FF5E00"/>
</svg>
