<svg width="48" height="34" viewBox="0 0 48 34" fill="none" xmlns="http://www.w3.org/2000/svg">
<rect x="1.58306" y="0.747121" width="45.4428" height="31.6722" rx="4.81969" fill="#27337A" stroke="#D1D9E0" stroke-width="1.37705"/>
<path fill-rule="evenodd" clip-rule="evenodd" d="M15.6977 21.8962H12.8613L10.7344 13.5431C10.6335 13.1589 10.4191 12.8192 10.1038 12.6591C9.31692 12.2568 8.44983 11.9366 7.50391 11.7751V11.4535H12.0731C12.7037 11.4535 13.1767 11.9366 13.2555 12.4976L14.3591 18.5229L17.194 11.4535H19.9516L15.6977 21.8962ZM21.5279 21.8962H18.8491L21.0549 11.4535H23.7336L21.5279 21.8962ZM27.1992 14.3464C27.2781 13.784 27.751 13.4624 28.3028 13.4624C29.1699 13.3817 30.1144 13.5431 30.9027 13.9441L31.3757 11.6957C30.5874 11.3741 29.7203 11.2126 28.9334 11.2126C26.3335 11.2126 24.4417 12.6591 24.4417 14.6666C24.4417 16.1938 25.7818 16.9957 26.7277 17.4788C27.751 17.9605 28.1452 18.2821 28.0663 18.7638C28.0663 19.4863 27.2781 19.8079 26.4912 19.8079C25.5453 19.8079 24.5994 19.5671 23.7336 19.1647L23.2607 21.4145C24.2066 21.8154 25.23 21.9769 26.1759 21.9769C29.0911 22.0563 30.9027 20.6112 30.9027 18.4422C30.9027 15.7108 27.1992 15.5507 27.1992 14.3464ZM40.2781 21.8962L38.1511 11.4535H35.8665C35.3936 11.4535 34.9206 11.7751 34.763 12.2568L30.8244 21.8962H33.5819L34.1323 20.3704H37.5205L37.8358 21.8962H40.2781ZM36.2601 14.2657L37.047 18.2013H34.8412L36.2601 14.2657Z" fill="white"/>
</svg>
