<svg width="24" height="27" viewBox="0 0 24 27" fill="none" xmlns="http://www.w3.org/2000/svg">
<path fill-rule="evenodd" clip-rule="evenodd" d="M7.15749 26.0778L7.61192 23.1192L6.59961 23.095H1.76562L5.12507 1.26219C5.13554 1.19608 5.16937 1.13471 5.21879 1.09105C5.26844 1.04739 5.33172 1.02344 5.39793 1.02344H13.5488C16.2549 1.02344 18.1223 1.60049 19.0971 2.73962C19.5543 3.274 19.8454 3.83259 19.9863 4.44706C20.134 5.09197 20.1365 5.86237 19.9924 6.80216L19.9819 6.87052V7.47277L20.439 7.73821C20.8238 7.94753 21.1298 8.18703 21.3644 8.46121C21.7554 8.91826 22.0082 9.49905 22.1151 10.1874C22.2256 10.8954 22.1891 11.7381 22.0082 12.6922C21.7996 13.7894 21.4625 14.7451 21.0071 15.527C20.5885 16.2475 20.0549 16.8453 19.4214 17.3083C18.8165 17.7484 18.098 18.0824 17.2855 18.2962C16.4981 18.5063 15.6004 18.6123 14.6158 18.6123H13.9815C13.5281 18.6123 13.0875 18.7797 12.7416 19.0799C12.3948 19.3862 12.1655 19.8049 12.0952 20.2627L12.0472 20.5291L11.2442 25.744L11.208 25.9353C11.1982 25.996 11.1817 26.0262 11.1573 26.0466C11.1357 26.0653 11.1045 26.0778 11.0741 26.0778H7.15749Z" fill="#28356A"/>
<path fill-rule="evenodd" clip-rule="evenodd" d="M20.8721 6.94141C20.848 7.10082 20.82 7.26374 20.7889 7.43114C19.714 13.0879 16.0364 15.042 11.3397 15.042H8.94826C8.37383 15.042 7.8897 15.4694 7.80037 16.0502L6.2292 26.2652C6.17103 26.6466 6.45776 26.9902 6.83308 26.9902H11.0746C11.5768 26.9902 12.0035 26.6162 12.0826 26.1085L12.1242 25.8877L12.9228 20.6933L12.9741 20.4084C13.0523 19.8989 13.4799 19.5247 13.9821 19.5247H14.6164C18.7258 19.5247 21.9428 17.8148 22.8831 12.8661C23.2757 10.7989 23.0725 9.07272 22.0331 7.85875C21.7187 7.49276 21.3285 7.18889 20.8721 6.94141Z" fill="#99C6E5"/>
<path fill-rule="evenodd" clip-rule="evenodd" d="M19.7472 6.48136C19.583 6.43222 19.4135 6.38781 19.2398 6.34764C19.065 6.30847 18.8861 6.2738 18.7018 6.24336C18.0571 6.13658 17.3505 6.08594 16.5937 6.08594H10.2051C10.0476 6.08594 9.89818 6.12236 9.76455 6.18822C9.46979 6.33342 9.25097 6.61933 9.19791 6.96935L7.83875 15.7925L7.7998 16.0497C7.88913 15.4689 8.37326 15.0415 8.94769 15.0415H11.3391C16.0358 15.0415 19.7134 13.0864 20.7883 7.43064C20.8204 7.26324 20.8474 7.10033 20.8715 6.94091C20.5996 6.79297 20.3051 6.66648 19.988 6.5587C19.9096 6.53201 19.8288 6.50631 19.7472 6.48136Z" fill="#CCE2F2"/>
<path fill-rule="evenodd" clip-rule="evenodd" d="M9.198 6.97051C9.25106 6.62049 9.46988 6.33458 9.76464 6.19038C9.89925 6.12427 10.0477 6.08785 10.2052 6.08785H16.5938C17.3505 6.08785 18.0571 6.13874 18.7019 6.24552C18.8862 6.27571 19.0651 6.31063 19.2398 6.3498C19.4136 6.38972 19.583 6.43438 19.7473 6.48327C19.8289 6.50822 19.9097 6.53417 19.9888 6.55986C20.3059 6.66764 20.6007 6.79512 20.8726 6.94207C21.1924 4.85167 20.8699 3.42838 19.7673 2.13956C18.5515 0.720517 16.3575 0.113281 13.5498 0.113281H5.39872C4.82526 0.113281 4.33602 0.540642 4.24743 1.12243L0.852439 23.1798C0.785503 23.6161 1.11385 24.0098 1.54322 24.0098H6.57533L9.198 6.97051Z" fill="white"/>
</svg>
