<svg width="24" height="25" viewBox="0 0 24 25" fill="none" xmlns="http://www.w3.org/2000/svg">
<path d="M22 7.23926H16" stroke="#292D32" stroke-width="1.5" stroke-miterlimit="10" stroke-linecap="round" stroke-linejoin="round"/>
<path d="M6 7.23926H2" stroke="#292D32" stroke-width="1.5" stroke-miterlimit="10" stroke-linecap="round" stroke-linejoin="round"/>
<path d="M10 10.7393C11.933 10.7393 13.5 9.17225 13.5 7.23926C13.5 5.30626 11.933 3.73926 10 3.73926C8.067 3.73926 6.5 5.30626 6.5 7.23926C6.5 9.17225 8.067 10.7393 10 10.7393Z" stroke="#292D32" stroke-width="1.5" stroke-miterlimit="10" stroke-linecap="round" stroke-linejoin="round"/>
<path d="M22 18.2393H18" stroke="#292D32" stroke-width="1.5" stroke-miterlimit="10" stroke-linecap="round" stroke-linejoin="round"/>
<path d="M8 18.2393H2" stroke="#292D32" stroke-width="1.5" stroke-miterlimit="10" stroke-linecap="round" stroke-linejoin="round"/>
<path d="M14 21.7393C15.933 21.7393 17.5 20.1723 17.5 18.2393C17.5 16.3063 15.933 14.7393 14 14.7393C12.067 14.7393 10.5 16.3063 10.5 18.2393C10.5 20.1723 12.067 21.7393 14 21.7393Z" stroke="#292D32" stroke-width="1.5" stroke-miterlimit="10" stroke-linecap="round" stroke-linejoin="round"/>
</svg>
