<svg width="53" height="23" viewBox="0 0 53 23" fill="none" xmlns="http://www.w3.org/2000/svg">
<g clip-path="url(#clip0_4987_20296)">
<path d="M4.23062 9.16064C4.23062 8.59042 4.69284 8.37111 5.45839 8.37111C6.55617 8.37111 7.94284 8.70739 9.04062 9.30685V5.87092C7.84173 5.38843 6.65728 5.19835 5.45839 5.19835C2.52617 5.19835 0.576172 6.74818 0.576172 9.33609C0.576172 13.3715 6.06506 12.7282 6.06506 14.4681C6.06506 15.1406 5.48728 15.3599 4.67839 15.3599C3.47951 15.3599 1.94839 14.8628 0.735061 14.1903V17.67C2.07839 18.2549 3.43617 18.5034 4.67839 18.5034C7.68284 18.5034 9.74839 16.9975 9.74839 14.3803C9.73395 10.0233 4.23062 10.7982 4.23062 9.16064ZM13.9951 2.27416L10.4706 3.03445L10.4562 14.7459C10.4562 16.9098 12.0595 18.5034 14.1973 18.5034C15.3817 18.5034 16.2484 18.2841 16.7251 18.021V15.0529C16.2628 15.243 13.9806 15.9155 13.9806 13.7516V8.56118H16.7251V5.44691H13.9806L13.9951 2.27416ZM21.2173 6.52886L20.9862 5.44691H17.8662V18.2403H21.4773V9.57003C22.3295 8.44421 23.774 8.6489 24.2217 8.80974V5.44691C23.7595 5.27146 22.0695 4.9498 21.2173 6.52886ZM25.1028 5.44691H28.7284V18.2403H25.1028V5.44691ZM25.1028 4.33572L28.7284 3.54618V0.578125L25.1028 1.35304V4.33572ZM36.2684 5.19835C34.8528 5.19835 33.9428 5.87092 33.4373 6.33879L33.2495 5.43229H30.0717V22.4803L33.6828 21.7054L33.6973 17.5677C34.2173 17.9478 34.9828 18.4888 36.2539 18.4888C38.8395 18.4888 41.194 16.3834 41.194 11.7486C41.1795 7.50847 38.7962 5.19835 36.2684 5.19835ZM35.4017 15.2722C34.5495 15.2722 34.044 14.9652 33.6973 14.585L33.6828 9.16064C34.0584 8.73663 34.5784 8.44421 35.4017 8.44421C36.7162 8.44421 37.6262 9.93555 37.6262 11.8509C37.6262 13.8101 36.7306 15.2722 35.4017 15.2722ZM52.5762 11.8948C52.5762 8.15179 50.7851 5.19835 47.3617 5.19835C43.924 5.19835 41.8439 8.15179 41.8439 11.8655C41.8439 16.2664 44.2995 18.4888 47.824 18.4888C49.5428 18.4888 50.8428 18.0941 51.8251 17.5385V14.6143C50.8428 15.1114 49.7162 15.4184 48.2862 15.4184C46.8851 15.4184 45.6428 14.9213 45.4839 13.196H52.5473C52.5473 13.006 52.5762 12.2457 52.5762 11.8948ZM45.4406 10.5058C45.4406 8.8536 46.4373 8.16641 47.3473 8.16641C48.2284 8.16641 49.1673 8.8536 49.1673 10.5058H45.4406Z" fill="#6772E5"/>
</g>
<defs>
<clipPath id="clip0_4987_20296">
<rect width="52" height="22" fill="white" transform="translate(0.576172 0.578125)"/>
</clipPath>
</defs>
</svg>
