<svg width="150" height="197" viewBox="0 0 150 197" fill="black" xmlns="http://www.w3.org/2000/svg">
    <path d="M134.354 71.3927C131.11 71.3835 127.95 72.4249 125.347 74.3611C125.346 71.4965 124.517 68.6932 122.96 66.2884C121.403 63.8837 119.185 61.9799 116.572 60.806C113.959 59.6322 111.062 59.2382 108.231 59.6715C105.399 60.1049 102.753 61.347 100.61 63.2487C99.559 60.4073 97.6633 57.9557 95.178 56.2232C92.6926 54.4908 89.7366 53.5603 86.707 53.557C83.4977 53.5696 80.3769 54.6099 77.8018 56.5254V32.7529C77.8846 30.7505 77.5617 28.752 76.8525 26.8776C76.1433 25.0032 75.0624 23.2915 73.6749 21.8454C72.2874 20.3993 70.6218 19.2487 68.7782 18.4627C66.9347 17.6767 64.9513 17.2715 62.9472 17.2715C60.9431 17.2715 58.9597 17.6767 57.1162 18.4627C55.2726 19.2487 53.607 20.3993 52.2195 21.8454C50.832 23.2915 49.7511 25.0032 49.0419 26.8776C48.3327 28.752 48.0098 30.7505 48.0926 32.7529V99.1992C46.5816 96.0847 44.2367 93.45 41.3185 91.5879C39.1859 90.1855 36.7956 89.221 34.2868 88.7506C31.7781 88.2802 29.2008 88.3133 26.7049 88.8479C25.7473 89.0543 24.1684 89.528 22.5959 90.03C19.7525 90.9377 18.0907 93.8525 18.6675 96.781C21.3762 110.531 28.7632 147.956 30.7642 157.324C32.1294 168.066 37.3669 177.942 45.4944 185.097C53.6218 192.253 64.0808 196.198 74.9096 196.192H104.619C110.474 196.195 116.272 195.045 121.682 192.806C127.091 190.567 132.007 187.283 136.147 183.143C140.287 179.003 143.57 174.088 145.809 168.678C148.048 163.268 149.199 157.47 149.196 151.615V86.2347C149.189 82.3004 147.623 78.5292 144.841 75.7472C142.059 72.9653 138.288 71.3994 134.354 71.3927ZM143.259 151.641C143.265 156.716 142.27 161.742 140.331 166.432C138.391 171.121 135.544 175.382 131.955 178.969C128.365 182.557 124.103 185.4 119.412 187.337C114.721 189.274 109.694 190.265 104.619 190.255H74.9096C65.4988 190.268 56.4073 186.843 49.3435 180.625C42.2797 174.407 37.7298 165.823 36.5488 156.487L24.3098 98.5503C23.9658 96.922 25.013 95.3249 26.6434 94.9912L28.0242 94.7085C29.7479 94.3265 31.5305 94.2923 33.2676 94.608C35.0047 94.9237 36.6613 95.5828 38.1404 96.5468C39.6196 97.5108 40.8914 98.7604 41.8815 100.222C42.8716 101.684 43.56 103.329 43.9064 105.06L45.5047 112.671L48.2194 128.325C48.3435 129.069 48.7392 129.74 49.3297 130.208C49.9203 130.677 50.6637 130.91 51.4161 130.862C52.1495 130.786 52.8285 130.441 53.3209 129.892C53.8134 129.343 54.084 128.631 54.0801 127.894V32.7529C54.2495 30.5137 55.2585 28.4213 56.9051 26.8945C58.5517 25.3677 60.7144 24.5194 62.9599 24.5194C65.2054 24.5194 67.368 25.3677 69.0147 26.8945C70.6613 28.4213 71.6703 30.5137 71.8397 32.7529V104.07C71.8397 104.858 72.1524 105.613 72.7091 106.169C73.2658 106.726 74.0208 107.039 74.8081 107.039C75.1988 107.042 75.5864 106.968 75.948 106.82C76.3097 106.672 76.6383 106.453 76.9146 106.177C77.1909 105.901 77.4094 105.572 77.5574 105.21C77.7054 104.849 77.7799 104.461 77.7765 104.07V68.4243C77.9459 66.1852 78.9549 64.0927 80.6015 62.566C82.2481 61.0392 84.4108 60.1909 86.6563 60.1909C88.9018 60.1909 91.0644 61.0392 92.7111 62.566C94.3577 64.0927 95.3667 66.1852 95.5361 68.4243V104.07C95.5361 104.858 95.8488 105.613 96.4055 106.169C96.9622 106.726 97.7172 107.039 98.5045 107.039C98.8952 107.042 99.2828 106.968 99.6444 106.82C100.006 106.672 100.335 106.453 100.611 106.177C100.887 105.901 101.106 105.572 101.254 105.21C101.402 104.849 101.476 104.461 101.473 104.07V74.3611C101.642 72.122 102.651 70.0295 104.298 68.5027C105.945 66.976 108.107 66.1277 110.353 66.1277C112.598 66.1277 114.761 66.976 116.407 68.5027C118.054 70.0295 119.063 72.122 119.232 74.3611V104.07C119.232 104.46 119.309 104.846 119.458 105.206C119.608 105.566 119.826 105.894 120.102 106.169C120.378 106.445 120.705 106.664 121.065 106.813C121.425 106.962 121.811 107.039 122.201 107.039C122.606 107.067 123.013 107.011 123.396 106.874C123.778 106.737 124.128 106.522 124.424 106.243C124.719 105.965 124.954 105.627 125.113 105.254C125.272 104.88 125.351 104.477 125.347 104.07V86.3108C125.254 85.0882 125.415 83.8598 125.82 82.7023C126.224 81.5448 126.863 80.4833 127.697 79.5843C128.53 78.6852 129.54 77.968 130.664 77.4775C131.788 76.987 133.001 76.7339 134.227 76.7339C135.453 76.7339 136.666 76.987 137.789 77.4775C138.913 77.968 139.923 78.6852 140.757 79.5843C141.59 80.4833 142.229 81.5448 142.634 82.7023C143.038 83.8598 143.199 85.0882 143.106 86.3108L143.259 151.641Z"/>
    <path d="M123.951 16.9468L112.052 28.8458C111.782 29.1259 111.459 29.349 111.102 29.5016C110.744 29.6541 110.36 29.7331 109.971 29.7337C109.171 29.7318 108.405 29.4124 107.84 28.8458C107.295 28.2906 106.989 27.5436 106.989 26.7653C106.989 25.9871 107.295 25.24 107.84 24.6849L114.665 17.8602H88.7611C89.3783 18.9373 89.9372 20.0468 90.4356 21.1837C91.1968 22.9816 91.7748 24.8516 92.1608 26.7653C92.5669 28.7177 92.7625 30.708 92.7444 32.7021C92.7545 33.0928 92.6867 33.4817 92.5449 33.8459C92.4031 34.2101 92.1902 34.5424 91.9186 34.8235C91.647 35.1045 91.3221 35.3287 90.963 35.4828C90.6038 35.637 90.2175 35.718 89.8267 35.7213C89.4369 35.7213 89.0509 35.6445 88.6908 35.4953C88.3306 35.3461 88.0034 35.1275 87.7277 34.8518C87.4521 34.5762 87.2334 34.249 87.0843 33.8888C86.9351 33.5287 86.8583 33.1427 86.8583 32.7529C86.8771 31.1583 86.7154 29.5667 86.3763 28.0085C86.0734 26.4772 85.6143 24.9809 85.0062 23.5432C83.8287 20.6988 82.1048 18.1129 79.9321 15.932C78.8495 14.832 77.6499 13.8537 76.3548 13.0143C75.0975 12.1291 73.7443 11.3886 72.3208 10.8071C70.873 10.1323 69.3478 9.63805 67.7794 9.33554C64.6398 8.70136 61.405 8.70136 58.2653 9.33554C56.7252 9.62778 55.2259 10.1048 53.8001 10.7563C52.3828 11.3508 51.0309 12.0905 49.7661 12.9636C48.5067 13.8197 47.3341 14.7969 46.2649 15.8812C45.1609 16.9694 44.1822 18.1778 43.3473 19.4839C42.4622 20.7413 41.7217 22.0945 41.14 23.5179C40.5421 24.9638 40.0668 26.4575 39.7192 27.9831C39.4099 29.5459 39.2485 31.1344 39.2372 32.7275C39.2406 33.1182 39.1661 33.5058 39.0181 33.8674C38.8701 34.2291 38.6516 34.5577 38.3753 34.834C38.099 35.1103 37.7704 35.3288 37.4087 35.4768C37.0471 35.6248 36.6595 35.6993 36.2688 35.6959C35.4815 35.6959 34.7265 35.3831 34.1698 34.8265C33.6131 34.2698 33.3004 33.5148 33.3004 32.7275C33.3578 30.7144 33.5955 28.7106 34.0108 26.74C34.4222 24.8432 35.017 22.9909 35.7867 21.2091C36.2611 20.061 36.8208 18.95 37.4612 17.8855H10.1114L16.9362 24.7103C17.3525 25.124 17.6369 25.6518 17.7534 26.227C17.8699 26.8023 17.8132 27.3991 17.5906 27.9422C17.3679 28.4852 16.9893 28.9501 16.5025 29.278C16.0157 29.6059 15.4427 29.7822 14.8558 29.7845C14.0558 29.7825 13.2893 29.4631 12.7246 28.8965L0.851026 16.9468C0.305609 16.3917 0 15.6446 0 14.8664C0 14.0882 0.305609 13.3411 0.851026 12.786L12.75 0.887041C13.0241 0.606264 13.3516 0.383146 13.7133 0.230811C14.0749 0.0784758 14.4633 0 14.8558 0C15.2482 0 15.6366 0.0784758 15.9982 0.230811C16.3599 0.383146 16.6874 0.606264 16.9615 0.887041C17.2441 1.15492 17.4691 1.47753 17.6228 1.8352C17.7766 2.19288 17.8559 2.57813 17.8559 2.96745C17.8559 3.35678 17.7766 3.74202 17.6228 4.0997C17.4691 4.45738 17.2441 4.77999 16.9615 5.04787L10.1114 11.8726H41.8504L42.028 11.695C43.3663 10.3423 44.8367 9.12687 46.4171 8.067C48.0085 6.97947 49.7091 6.06113 51.4913 5.32694C53.2904 4.55694 55.1596 3.9622 57.0729 3.55098C59.0253 3.14492 61.0156 2.9493 63.0097 2.96745C65.0288 2.95191 67.0441 3.14748 69.0226 3.55098C70.9334 3.9716 72.8017 4.56606 74.6042 5.32694C76.3879 6.05789 78.0888 6.97641 79.6784 8.067C81.2525 9.17199 82.699 10.4484 83.9914 11.8726L84.169 12.0502H114.614L107.84 5.12398C107.295 4.56887 106.989 3.82178 106.989 3.04357C106.989 2.26535 107.295 1.51826 107.84 0.963152C108.114 0.682376 108.442 0.459258 108.803 0.306923C109.165 0.154588 109.553 0.076112 109.946 0.076112C110.338 0.076112 110.727 0.154588 111.088 0.306923C111.45 0.459258 111.777 0.682376 112.052 0.963152L123.951 12.8621C124.221 13.1288 124.436 13.4468 124.583 13.7974C124.73 14.148 124.806 14.5243 124.806 14.9045C124.806 15.2846 124.73 15.6609 124.583 16.0115C124.436 16.3621 124.221 16.6801 123.951 16.9468Z"
    />
</svg>
