<svg width="33" height="35" viewBox="0 0 33 35" fill="none" xmlns="http://www.w3.org/2000/svg">
<path d="M24.9445 21.1699L25.4655 25.3913C25.5991 26.5001 24.4101 27.2749 23.4616 26.7004L17.8643 23.3741C17.2498 23.3741 16.6486 23.334 16.0608 23.2539C17.0494 22.0917 17.6372 20.6221 17.6372 19.0324C17.6372 15.2385 14.3509 12.166 10.2898 12.166C8.74014 12.166 7.31075 12.6068 6.12181 13.3816C6.08173 13.0477 6.06836 12.7137 6.06836 12.3664C6.06836 6.28806 11.3451 1.35864 17.8643 1.35864C24.3834 1.35864 29.6602 6.28806 29.6602 12.3664C29.6602 15.9733 27.8033 19.1661 24.9445 21.1699Z" stroke="#828ECC" stroke-width="2.00383" stroke-linecap="round" stroke-linejoin="round"/>
<path d="M17.6401 19.0327C17.6401 20.6224 17.0523 22.0919 16.0638 23.2541C14.7412 24.8572 12.6439 25.8858 10.2927 25.8858L6.80603 27.9564C6.21824 28.3171 5.47014 27.8228 5.55029 27.1415L5.88427 24.5099C4.09417 23.2675 2.94531 21.277 2.94531 19.0327C2.94531 16.6815 4.20106 14.6109 6.12474 13.3819C7.31368 12.6071 8.74307 12.1663 10.2927 12.1663C14.3538 12.1663 17.6401 15.2387 17.6401 19.0327Z" stroke="#828ECC" stroke-width="2.00383" stroke-linecap="round" stroke-linejoin="round"/>
</svg>
