<svg width="25" height="25" viewBox="0 0 25 25" fill="none" xmlns="http://www.w3.org/2000/svg">
<path d="M21.2734 6.11157C17.9434 5.78157 14.5934 5.61157 11.2534 5.61157C9.27344 5.61157 7.29344 5.71157 5.31344 5.91157L3.27344 6.11157" stroke="#292D32" stroke-width="1.5" stroke-linecap="round" stroke-linejoin="round"/>
<path d="M8.77344 5.10159L8.99344 3.79159C9.15344 2.84159 9.27344 2.13159 10.9634 2.13159H13.5834C15.2734 2.13159 15.4034 2.88159 15.5534 3.80159L15.7734 5.10159" stroke="#292D32" stroke-width="1.5" stroke-linecap="round" stroke-linejoin="round"/>
<path d="M19.1238 9.27161L18.4738 19.3416C18.3638 20.9116 18.2738 22.1316 15.4838 22.1316H9.06383C6.27383 22.1316 6.18383 20.9116 6.07383 19.3416L5.42383 9.27161" stroke="#292D32" stroke-width="1.5" stroke-linecap="round" stroke-linejoin="round"/>
<path d="M10.6035 16.6316H13.9335" stroke="#292D32" stroke-width="1.5" stroke-linecap="round" stroke-linejoin="round"/>
<path d="M9.77344 12.6316H14.7734" stroke="#292D32" stroke-width="1.5" stroke-linecap="round" stroke-linejoin="round"/>
</svg>
