<svg width="25" height="24" viewBox="0 0 25 24" fill="none" xmlns="http://www.w3.org/2000/svg">
    <path d="M9.43359 10C10.5382 10 11.4336 9.10457 11.4336 8C11.4336 6.89543 10.5382 6 9.43359 6C8.32902 6 7.43359 6.89543 7.43359 8C7.43359 9.10457 8.32902 10 9.43359 10Z" stroke="#292D32" stroke-width="1.5" stroke-linecap="round" stroke-linejoin="round"/>
    <path d="M13.4336 2H9.43359C4.43359 2 2.43359 4 2.43359 9V15C2.43359 20 4.43359 22 9.43359 22H15.4336C20.4336 22 22.4336 20 22.4336 15V10" stroke="#292D32" stroke-width="1.5" stroke-linecap="round" stroke-linejoin="round"/>
    <path d="M16.1836 5H21.6836" stroke="#292D32" stroke-width="1.5" stroke-linecap="round"/>
    <path d="M18.9336 7.75V2.25" stroke="#292D32" stroke-width="1.5" stroke-linecap="round"/>
    <path d="M3.10352 18.95L8.03352 15.64C8.82352 15.11 9.96352 15.17 10.6735 15.78L11.0035 16.07C11.7835 16.74 13.0435 16.74 13.8235 16.07L17.9835 12.5C18.7635 11.83 20.0235 11.83 20.8035 12.5L22.4335 13.9" stroke="#292D32" stroke-width="1.5" stroke-linecap="round" stroke-linejoin="round"/>
</svg>
