<svg width="25" height="25" viewBox="0 0 25 25" fill="none" xmlns="http://www.w3.org/2000/svg">
<path d="M12.2734 21.8105H7.27344C3.62344 21.8105 1.52344 19.7105 1.52344 16.0605V9.06055C1.52344 5.41055 3.62344 3.31055 7.27344 3.31055H17.2734C20.9234 3.31055 23.0234 5.41055 23.0234 9.06055V12.0605C23.0234 12.4705 22.6834 12.8105 22.2734 12.8105C21.8634 12.8105 21.5234 12.4705 21.5234 12.0605V9.06055C21.5234 6.20055 20.1334 4.81055 17.2734 4.81055H7.27344C4.41344 4.81055 3.02344 6.20055 3.02344 9.06055V16.0605C3.02344 18.9205 4.41344 20.3105 7.27344 20.3105H12.2734C12.6834 20.3105 13.0234 20.6505 13.0234 21.0605C13.0234 21.4705 12.6834 21.8105 12.2734 21.8105Z" fill="black"/>
<path d="M12.2732 13.4305C11.4332 13.4305 10.5832 13.1705 9.93322 12.6405L6.80321 10.1405C6.48321 9.8805 6.42322 9.41052 6.68322 9.09052C6.94322 8.77052 7.41321 8.72052 7.73321 8.97052L10.8632 11.4705C11.6232 12.0805 12.9132 12.0805 13.6732 11.4705L16.8032 8.97052C17.1232 8.71052 17.5932 8.76052 17.8532 9.09052C18.1132 9.41052 18.0632 9.8905 17.7332 10.1405L14.6032 12.6405C13.9632 13.1705 13.1132 13.4305 12.2732 13.4305Z" fill="black"/>
<path d="M16.0935 22.3405C15.7135 22.3405 15.3535 22.2005 15.0935 21.9405C14.7835 21.6305 14.6435 21.1805 14.7135 20.7105L14.9035 19.3605C14.9535 19.0105 15.1635 18.5905 15.4135 18.3405L18.9535 14.8005C19.4335 14.3205 19.9035 14.0705 20.4135 14.0205C21.0335 13.9605 21.6535 14.2205 22.2335 14.8005C22.8135 15.3805 23.0735 15.9905 23.0135 16.6205C22.9635 17.1205 22.7035 17.6005 22.2335 18.0805L18.6935 21.6205C18.4435 21.8705 18.0235 22.0805 17.6735 22.1305L16.3235 22.3205C16.2435 22.3305 16.1735 22.3405 16.0935 22.3405ZM20.5835 15.5105C20.5735 15.5105 20.5635 15.5105 20.5535 15.5105C20.4135 15.5205 20.2235 15.6505 20.0135 15.8605L16.4735 19.4005C16.4435 19.4305 16.3935 19.5305 16.3935 19.5705L16.2135 20.8205L17.4635 20.6405C17.5035 20.6305 17.6035 20.5805 17.6335 20.5505L21.1735 17.0105C21.3835 16.7905 21.5135 16.6105 21.5235 16.4705C21.5435 16.2705 21.3435 16.0305 21.1735 15.8605C21.0135 15.7005 20.7835 15.5105 20.5835 15.5105Z" fill="black"/>
<path d="M21.1935 18.8105C21.1235 18.8105 21.0535 18.8005 20.9935 18.7805C19.6735 18.4105 18.6235 17.3605 18.2535 16.0405C18.1435 15.6405 18.3735 15.2305 18.7735 15.1105C19.1735 15.0005 19.5835 15.2305 19.6935 15.6305C19.9235 16.4505 20.5735 17.1005 21.3935 17.3305C21.7935 17.4405 22.0235 17.8605 21.9135 18.2605C21.8235 18.5905 21.5235 18.8105 21.1935 18.8105Z" fill="black"/>
</svg>
