<svg width="25" height="25" viewBox="0 0 25 25" fill="none" xmlns="http://www.w3.org/2000/svg">
    <path d="M6.27344 10.0867V8.08667C6.27344 4.77667 7.27344 2.08667 12.2734 2.08667C17.2734 2.08667 18.2734 4.77667 18.2734 8.08667V10.0867" stroke="#292D32" stroke-width="1.5" stroke-linecap="round" stroke-linejoin="round"/>
    <path d="M12.2734 18.5867C13.6541 18.5867 14.7734 17.4674 14.7734 16.0867C14.7734 14.706 13.6541 13.5867 12.2734 13.5867C10.8927 13.5867 9.77344 14.706 9.77344 16.0867C9.77344 17.4674 10.8927 18.5867 12.2734 18.5867Z" stroke="#292D32" stroke-width="1.5" stroke-linecap="round" stroke-linejoin="round"/>
    <path d="M17.2734 22.0867H7.27344C3.27344 22.0867 2.27344 21.0867 2.27344 17.0867V15.0867C2.27344 11.0867 3.27344 10.0867 7.27344 10.0867H17.2734C21.2734 10.0867 22.2734 11.0867 22.2734 15.0867V17.0867C22.2734 21.0867 21.2734 22.0867 17.2734 22.0867Z" stroke="#292D32" stroke-width="1.5" stroke-linecap="round" stroke-linejoin="round"/>
</svg>
